<?xml version="1.0" encoding="UTF-8" standalone="no"?>
<!DOCTYPE svg PUBLIC "-//W3C//DTD SVG 1.1//EN"
 "http://www.w3.org/Graphics/SVG/1.1/DTD/svg11.dtd">
<!-- Generated by graphviz version 2.38.0 (20140413.2041)
 -->
<!-- Title: diffTree Pages: 1 -->
<svg width="626pt" height="960pt"
 viewBox="0.00 0.00 625.52 959.88" xmlns="http://www.w3.org/2000/svg" xmlns:xlink="http://www.w3.org/1999/xlink">
<g id="graph0" class="graph" transform="scale(1 1) rotate(0) translate(4 955.882)">
<title>diffTree</title>
<polygon fill="white" stroke="none" points="-4,4 -4,-955.882 621.523,-955.882 621.523,4 -4,4"/>
<!-- TES_1 -->
<g id="node1" class="node"><title>TES_1</title>
<ellipse fill="none" stroke="black" cx="361.761" cy="-922.466" rx="90.404" ry="29.3315"/>
<text text-anchor="middle" x="361.761" y="-926.666" font-family="Times,serif" font-size="14.00">TES_1</text>
<text text-anchor="middle" x="361.761" y="-909.866" font-family="Times,serif" font-size="14.00"> attrs:a1,a2,a3,a4,a6</text>
</g>
<!-- TES_2 -->
<g id="node2" class="node"><title>TES_2</title>
<ellipse fill="none" stroke="black" cx="255.761" cy="-810.835" rx="66.6276" ry="29.3315"/>
<text text-anchor="middle" x="255.761" y="-815.035" font-family="Times,serif" font-size="14.00">TES_2</text>
<text text-anchor="middle" x="255.761" y="-798.235" font-family="Times,serif" font-size="14.00"> attrs:a1,a4,a6</text>
</g>
<!-- TES_1&#45;&gt;TES_2 -->
<g id="edge1" class="edge"><title>TES_1&#45;&gt;TES_2</title>
<path fill="none" stroke="black" d="M335.286,-894.084C321.058,-879.368 303.393,-861.098 288.329,-845.518"/>
<polygon fill="black" stroke="black" points="290.636,-842.869 281.169,-838.113 285.604,-847.735 290.636,-842.869"/>
<text text-anchor="middle" x="328.011" y="-862.45" font-family="Times,serif" font-size="14.00">0.03</text>
</g>
<!-- TES_7 -->
<g id="node7" class="node"><title>TES_7</title>
<ellipse fill="none" stroke="black" cx="361.761" cy="-252.678" rx="42.8517" ry="29.3315"/>
<text text-anchor="middle" x="361.761" y="-256.878" font-family="Times,serif" font-size="14.00">TES_7</text>
<text text-anchor="middle" x="361.761" y="-240.078" font-family="Times,serif" font-size="14.00"> attrs:a2</text>
</g>
<!-- TES_1&#45;&gt;TES_7 -->
<g id="edge6" class="edge"><title>TES_1&#45;&gt;TES_7</title>
<path fill="none" stroke="grey" stroke-dasharray="5,2" d="M361.761,-892.613C361.761,-870.504 361.761,-839.242 361.761,-811.835 361.761,-811.835 361.761,-811.835 361.761,-363.309 361.761,-339.863 361.761,-313.596 361.761,-292.652"/>
<polygon fill="grey" stroke="grey" points="365.261,-292.531 361.761,-282.531 358.261,-292.531 365.261,-292.531"/>
</g>
<!-- TES_8 -->
<g id="node8" class="node"><title>TES_8</title>
<ellipse fill="none" stroke="black" cx="466.761" cy="-252.678" rx="42.8517" ry="29.3315"/>
<text text-anchor="middle" x="466.761" y="-256.878" font-family="Times,serif" font-size="14.00">TES_8</text>
<text text-anchor="middle" x="466.761" y="-240.078" font-family="Times,serif" font-size="14.00"> attrs:a3</text>
</g>
<!-- TES_1&#45;&gt;TES_8 -->
<g id="edge7" class="edge"><title>TES_1&#45;&gt;TES_8</title>
<path fill="none" stroke="grey" stroke-dasharray="5,2" d="M391.872,-894.329C411.223,-873.818 432.761,-843.808 432.761,-811.835 432.761,-811.835 432.761,-811.835 432.761,-363.309 432.761,-338.193 441.003,-311.234 449.371,-290.334"/>
<polygon fill="grey" stroke="grey" points="452.69,-291.468 453.324,-280.892 446.233,-288.765 452.69,-291.468"/>
</g>
<!-- TES_3 -->
<g id="node3" class="node"><title>TES_3</title>
<ellipse fill="none" stroke="black" cx="149.761" cy="-699.203" rx="54.9906" ry="29.3315"/>
<text text-anchor="middle" x="149.761" y="-703.403" font-family="Times,serif" font-size="14.00">TES_3</text>
<text text-anchor="middle" x="149.761" y="-686.603" font-family="Times,serif" font-size="14.00"> attrs:a1,a6</text>
</g>
<!-- TES_2&#45;&gt;TES_3 -->
<g id="edge2" class="edge"><title>TES_2&#45;&gt;TES_3</title>
<path fill="none" stroke="black" d="M230.372,-783.575C215.844,-768.55 197.477,-749.554 181.946,-733.49"/>
<polygon fill="black" stroke="black" points="184.045,-730.627 174.578,-725.87 179.013,-735.492 184.045,-730.627"/>
<text text-anchor="middle" x="218.511" y="-750.819" font-family="Times,serif" font-size="14.00">0.1</text>
</g>
<!-- TES_18 -->
<g id="node18" class="node"><title>TES_18</title>
<ellipse fill="none" stroke="black" cx="255.761" cy="-29.4156" rx="43.5239" ry="29.3315"/>
<text text-anchor="middle" x="255.761" y="-33.6156" font-family="Times,serif" font-size="14.00">TES_18</text>
<text text-anchor="middle" x="255.761" y="-16.8156" font-family="Times,serif" font-size="14.00"> attrs:a4</text>
</g>
<!-- TES_2&#45;&gt;TES_18 -->
<g id="edge16" class="edge"><title>TES_2&#45;&gt;TES_18</title>
<path fill="none" stroke="grey" stroke-dasharray="5,2" d="M255.761,-780.981C255.761,-758.873 255.761,-727.611 255.761,-700.203 255.761,-700.203 255.761,-700.203 255.761,-140.047 255.761,-116.6 255.761,-90.3332 255.761,-69.3892"/>
<polygon fill="grey" stroke="grey" points="259.261,-69.2688 255.761,-59.2688 252.261,-69.2688 259.261,-69.2688"/>
</g>
<!-- TES_4 -->
<g id="node4" class="node"><title>TES_4</title>
<ellipse fill="none" stroke="black" cx="78.7613" cy="-587.572" rx="42.8517" ry="29.3315"/>
<text text-anchor="middle" x="78.7613" y="-591.772" font-family="Times,serif" font-size="14.00">TES_4</text>
<text text-anchor="middle" x="78.7613" y="-574.972" font-family="Times,serif" font-size="14.00"> attrs:a6</text>
</g>
<!-- TES_3&#45;&gt;TES_4 -->
<g id="edge3" class="edge"><title>TES_3&#45;&gt;TES_4</title>
<path fill="none" stroke="black" d="M126.736,-672.463C121.368,-665.93 115.877,-658.777 111.261,-651.788 105.709,-643.381 100.393,-633.907 95.7269,-624.901"/>
<polygon fill="black" stroke="black" points="98.7419,-623.107 91.117,-615.75 92.4904,-626.256 98.7419,-623.107"/>
<text text-anchor="middle" x="124.011" y="-639.188" font-family="Times,serif" font-size="14.00">0.13</text>
</g>
<!-- TES_15 -->
<g id="node15" class="node"><title>TES_15</title>
<ellipse fill="none" stroke="black" cx="149.761" cy="-29.4156" rx="43.5239" ry="29.3315"/>
<text text-anchor="middle" x="149.761" y="-33.6156" font-family="Times,serif" font-size="14.00">TES_15</text>
<text text-anchor="middle" x="149.761" y="-16.8156" font-family="Times,serif" font-size="14.00"> attrs:a1</text>
</g>
<!-- TES_3&#45;&gt;TES_15 -->
<g id="edge13" class="edge"><title>TES_3&#45;&gt;TES_15</title>
<path fill="none" stroke="grey" stroke-dasharray="5,2" d="M149.761,-669.35C149.761,-647.242 149.761,-615.98 149.761,-588.572 149.761,-588.572 149.761,-588.572 149.761,-140.047 149.761,-116.6 149.761,-90.3332 149.761,-69.3892"/>
<polygon fill="grey" stroke="grey" points="153.261,-69.2688 149.761,-59.2688 146.261,-69.2688 153.261,-69.2688"/>
</g>
<!-- TES_5 -->
<g id="node5" class="node"><title>TES_5</title>
<ellipse fill="none" stroke="black" cx="78.7613" cy="-475.941" rx="42.8517" ry="29.3315"/>
<text text-anchor="middle" x="78.7613" y="-480.141" font-family="Times,serif" font-size="14.00">TES_5</text>
<text text-anchor="middle" x="78.7613" y="-463.341" font-family="Times,serif" font-size="14.00"> attrs:a6</text>
</g>
<!-- TES_4&#45;&gt;TES_5 -->
<g id="edge4" class="edge"><title>TES_4&#45;&gt;TES_5</title>
<path fill="none" stroke="black" d="M78.7613,-558.054C78.7613,-545.212 78.7613,-529.848 78.7613,-515.961"/>
<polygon fill="black" stroke="black" points="82.2614,-515.697 78.7613,-505.697 75.2614,-515.697 82.2614,-515.697"/>
<text text-anchor="middle" x="91.0113" y="-527.556" font-family="Times,serif" font-size="14.00">0.15</text>
</g>
<!-- TES_6 -->
<g id="node6" class="node"><title>TES_6</title>
<ellipse fill="none" stroke="black" cx="77.7613" cy="-364.309" rx="42.8517" ry="29.3315"/>
<text text-anchor="middle" x="77.7613" y="-368.509" font-family="Times,serif" font-size="14.00">TES_6</text>
<text text-anchor="middle" x="77.7613" y="-351.709" font-family="Times,serif" font-size="14.00"> attrs:a6</text>
</g>
<!-- TES_5&#45;&gt;TES_6 -->
<g id="edge5" class="edge"><title>TES_5&#45;&gt;TES_6</title>
<path fill="none" stroke="black" d="M78.5012,-446.423C78.384,-433.581 78.2439,-418.216 78.1172,-404.33"/>
<polygon fill="black" stroke="black" points="81.6147,-404.033 78.0236,-394.066 74.615,-404.097 81.6147,-404.033"/>
<text text-anchor="middle" x="87.5113" y="-415.925" font-family="Times,serif" font-size="14.00">0.3</text>
</g>
<!-- TES_10 -->
<g id="node10" class="node"><title>TES_10</title>
<ellipse fill="none" stroke="black" cx="73.7613" cy="-252.678" rx="43.5239" ry="29.3315"/>
<text text-anchor="middle" x="73.7613" y="-256.878" font-family="Times,serif" font-size="14.00">TES_10</text>
<text text-anchor="middle" x="73.7613" y="-240.078" font-family="Times,serif" font-size="14.00"> attrs:a6</text>
</g>
<!-- TES_6&#45;&gt;TES_10 -->
<g id="edge8" class="edge"><title>TES_6&#45;&gt;TES_10</title>
<path fill="none" stroke="black" d="M76.7208,-334.791C76.2522,-321.95 75.6916,-306.585 75.185,-292.699"/>
<polygon fill="black" stroke="black" points="78.6729,-292.3 74.8105,-282.434 71.6775,-292.555 78.6729,-292.3"/>
<text text-anchor="middle" x="85.5113" y="-304.294" font-family="Times,serif" font-size="14.00">0.4</text>
</g>
<!-- TES_11 -->
<g id="node11" class="node"><title>TES_11</title>
<ellipse fill="none" stroke="black" cx="361.761" cy="-141.047" rx="43.5239" ry="29.3315"/>
<text text-anchor="middle" x="361.761" y="-145.247" font-family="Times,serif" font-size="14.00">TES_11</text>
<text text-anchor="middle" x="361.761" y="-128.447" font-family="Times,serif" font-size="14.00"> attrs:a2</text>
</g>
<!-- TES_7&#45;&gt;TES_11 -->
<g id="edge9" class="edge"><title>TES_7&#45;&gt;TES_11</title>
<path fill="none" stroke="black" d="M361.761,-223.16C361.761,-210.319 361.761,-194.954 361.761,-181.068"/>
<polygon fill="black" stroke="black" points="365.261,-180.803 361.761,-170.803 358.261,-180.803 365.261,-180.803"/>
<text text-anchor="middle" x="374.011" y="-192.663" font-family="Times,serif" font-size="14.00">0.45</text>
</g>
<!-- TES_12 -->
<g id="node12" class="node"><title>TES_12</title>
<ellipse fill="none" stroke="black" cx="467.761" cy="-141.047" rx="43.5239" ry="29.3315"/>
<text text-anchor="middle" x="467.761" y="-145.247" font-family="Times,serif" font-size="14.00">TES_12</text>
<text text-anchor="middle" x="467.761" y="-128.447" font-family="Times,serif" font-size="14.00"> attrs:a3</text>
</g>
<!-- TES_8&#45;&gt;TES_12 -->
<g id="edge10" class="edge"><title>TES_8&#45;&gt;TES_12</title>
<path fill="none" stroke="black" d="M467.021,-223.16C467.139,-210.319 467.279,-194.954 467.405,-181.068"/>
<polygon fill="black" stroke="black" points="470.908,-180.835 467.499,-170.803 463.908,-180.771 470.908,-180.835"/>
<text text-anchor="middle" x="480.011" y="-192.663" font-family="Times,serif" font-size="14.00">0.45</text>
</g>
<!-- TES_9 -->
<g id="node9" class="node"><title>TES_9</title>
<ellipse fill="none" stroke="black" cx="573.761" cy="-252.678" rx="42.8517" ry="29.3315"/>
<text text-anchor="middle" x="573.761" y="-256.878" font-family="Times,serif" font-size="14.00">TES_9</text>
<text text-anchor="middle" x="573.761" y="-240.078" font-family="Times,serif" font-size="14.00"> attrs:a5</text>
</g>
<!-- TES_13 -->
<g id="node13" class="node"><title>TES_13</title>
<ellipse fill="none" stroke="black" cx="573.761" cy="-141.047" rx="43.5239" ry="29.3315"/>
<text text-anchor="middle" x="573.761" y="-145.247" font-family="Times,serif" font-size="14.00">TES_13</text>
<text text-anchor="middle" x="573.761" y="-128.447" font-family="Times,serif" font-size="14.00"> attrs:a5</text>
</g>
<!-- TES_9&#45;&gt;TES_13 -->
<g id="edge11" class="edge"><title>TES_9&#45;&gt;TES_13</title>
<path fill="none" stroke="black" d="M573.761,-223.16C573.761,-210.319 573.761,-194.954 573.761,-181.068"/>
<polygon fill="black" stroke="black" points="577.261,-180.803 573.761,-170.803 570.261,-180.803 577.261,-180.803"/>
<text text-anchor="middle" x="586.011" y="-192.663" font-family="Times,serif" font-size="14.00">0.45</text>
</g>
<!-- TES_14 -->
<g id="node14" class="node"><title>TES_14</title>
<ellipse fill="none" stroke="black" cx="60.7613" cy="-141.047" rx="43.5239" ry="29.3315"/>
<text text-anchor="middle" x="60.7613" y="-145.247" font-family="Times,serif" font-size="14.00">TES_14</text>
<text text-anchor="middle" x="60.7613" y="-128.447" font-family="Times,serif" font-size="14.00"> attrs:a6</text>
</g>
<!-- TES_10&#45;&gt;TES_14 -->
<g id="edge12" class="edge"><title>TES_10&#45;&gt;TES_14</title>
<path fill="none" stroke="black" d="M70.3796,-223.16C68.8449,-210.218 67.0062,-194.712 65.3495,-180.74"/>
<polygon fill="black" stroke="black" points="68.7793,-179.941 64.126,-170.422 61.828,-180.765 68.7793,-179.941"/>
<text text-anchor="middle" x="81.0113" y="-192.663" font-family="Times,serif" font-size="14.00">0.45</text>
</g>
<!-- TES_16 -->
<g id="node16" class="node"><title>TES_16</title>
<ellipse fill="none" stroke="black" cx="361.761" cy="-29.4156" rx="43.5239" ry="29.3315"/>
<text text-anchor="middle" x="361.761" y="-33.6156" font-family="Times,serif" font-size="14.00">TES_16</text>
<text text-anchor="middle" x="361.761" y="-16.8156" font-family="Times,serif" font-size="14.00"> attrs:a2</text>
</g>
<!-- TES_11&#45;&gt;TES_16 -->
<g id="edge14" class="edge"><title>TES_11&#45;&gt;TES_16</title>
<path fill="none" stroke="black" d="M361.761,-111.529C361.761,-98.6874 361.761,-83.3225 361.761,-69.4362"/>
<polygon fill="black" stroke="black" points="365.261,-69.1718 361.761,-59.1718 358.261,-69.1719 365.261,-69.1718"/>
<text text-anchor="middle" x="370.511" y="-81.0313" font-family="Times,serif" font-size="14.00">0.6</text>
</g>
<!-- TES_17 -->
<g id="node17" class="node"><title>TES_17</title>
<ellipse fill="none" stroke="black" cx="467.761" cy="-29.4156" rx="43.5239" ry="29.3315"/>
<text text-anchor="middle" x="467.761" y="-33.6156" font-family="Times,serif" font-size="14.00">TES_17</text>
<text text-anchor="middle" x="467.761" y="-16.8156" font-family="Times,serif" font-size="14.00"> attrs:a3</text>
</g>
<!-- TES_12&#45;&gt;TES_17 -->
<g id="edge15" class="edge"><title>TES_12&#45;&gt;TES_17</title>
<path fill="none" stroke="black" d="M467.761,-111.529C467.761,-98.6874 467.761,-83.3225 467.761,-69.4362"/>
<polygon fill="black" stroke="black" points="471.261,-69.1718 467.761,-59.1718 464.261,-69.1719 471.261,-69.1718"/>
<text text-anchor="middle" x="476.511" y="-81.0313" font-family="Times,serif" font-size="14.00">0.6</text>
</g>
<!-- TES_19 -->
<g id="node19" class="node"><title>TES_19</title>
<ellipse fill="none" stroke="black" cx="573.761" cy="-29.4156" rx="43.5239" ry="29.3315"/>
<text text-anchor="middle" x="573.761" y="-33.6156" font-family="Times,serif" font-size="14.00">TES_19</text>
<text text-anchor="middle" x="573.761" y="-16.8156" font-family="Times,serif" font-size="14.00"> attrs:a5</text>
</g>
<!-- TES_13&#45;&gt;TES_19 -->
<g id="edge17" class="edge"><title>TES_13&#45;&gt;TES_19</title>
<path fill="none" stroke="black" d="M573.761,-111.529C573.761,-98.6874 573.761,-83.3225 573.761,-69.4362"/>
<polygon fill="black" stroke="black" points="577.261,-69.1718 573.761,-59.1718 570.261,-69.1719 577.261,-69.1718"/>
<text text-anchor="middle" x="582.511" y="-81.0313" font-family="Times,serif" font-size="14.00">0.6</text>
</g>
<!-- TES_20 -->
<g id="node20" class="node"><title>TES_20</title>
<ellipse fill="none" stroke="black" cx="43.7613" cy="-29.4156" rx="43.5239" ry="29.3315"/>
<text text-anchor="middle" x="43.7613" y="-33.6156" font-family="Times,serif" font-size="14.00">TES_20</text>
<text text-anchor="middle" x="43.7613" y="-16.8156" font-family="Times,serif" font-size="14.00"> attrs:a6</text>
</g>
<!-- TES_14&#45;&gt;TES_20 -->
<g id="edge18" class="edge"><title>TES_14&#45;&gt;TES_20</title>
<path fill="none" stroke="black" d="M56.3391,-111.529C54.3125,-98.4594 51.8806,-82.7761 49.6975,-68.698"/>
<polygon fill="black" stroke="black" points="53.1524,-68.1365 48.1613,-58.791 46.2351,-69.2092 53.1524,-68.1365"/>
<text text-anchor="middle" x="62.5113" y="-81.0313" font-family="Times,serif" font-size="14.00">0.6</text>
</g>
</g>
</svg>

